PathFileType	4	(X/Y/Z)	Patient4_TMGait_0pt2_03_right_02.trc.trc
DataRate	CameraRate	NumFrames	NumMarkers	Units	OrigDataRate	OrigDataStartFrame	OrigNumFrames
47.457627118644	47.457627118644	5	33	mm	47.457627118644	53	       141
Frame#	Time	Sacral			L.Shoulder			Chest			R.Shoulder			Neck			R.ASIS			L.ASIS			R.Thigh.Superior			R.Thigh.Lateral			R.Thigh.Inferior			R.Patella			L.Thigh.Superior			L.Thigh.Lateral			L.Thigh.Inferior			L.Patella			L.Shank.Superior			L.Shank.Lateral			L.Shank.Inferior			R.Shank.Superior			R.Shank.Lateral			R.Shank.Inferior			R.Heel			R.Midfoot.Superior			R.Midfoot.Lateral			R.Toe			L.Heel			L.Midfoot.Lateral			L.Midfoot.Superior			L.Toe			L.Elbow			L.Wrist			R.Elbow			R.Wrist			
		X1	Y1	Z1	X2	Y2	Z2	X3	Y3	Z3	X4	Y4	Z4	X5	Y5	Z5	X6	Y6	Z6	X7	Y7	Z7	X8	Y8	Z8	X9	Y9	Z9	X10	Y10	Z10	X11	Y11	Z11	X12	Y12	Z12	X13	Y13	Z13	X14	Y14	Z14	X15	Y15	Z15	X16	Y16	Z16	X17	Y17	Z17	X18	Y18	Z18	X19	Y19	Z19	X20	Y20	Z20	X21	Y21	Z21	X22	Y22	Z22	X23	Y23	Z23	X24	Y24	Z24	X25	Y25	Z25	X26	Y26	Z26	X27	Y27	Z27	X28	Y28	Z28	X29	Y29	Z29	X30	Y30	Z30	X31	Y31	Z31	X32	Y32	Z32	X33	Y33	Z33	

53	5.225714285714	746.143256154782	987.974877192815	575.265801093978	898.986478153084	1407.095246306463	349.295317659466	1017.982495189039	1346.358120078065	501.723449566985	958.609011936421	1433.350913824781	678.744232917011	905.176164205323	1479.370650743997	502.725929793030	990.250388027829	929.743920675131	663.127622474876	941.691428611237	950.470875188440	392.427247692184	1039.635802621162	731.429336180417	614.456284354331	974.363836633160	612.574039003323	676.066318149566	1041.898078275919	569.449385315838	582.280712135778	1046.749315929613	474.012821285961	583.263933552144	1041.230764044702	784.396017245393	415.481946182968	1009.775276781518	656.671116718277	330.231258741103	1119.899845813932	601.464165687863	388.982788905474	1138.368402159154	511.570180346227	372.258028786724	1070.898101776143	443.521230898950	358.937252369543	926.034028887186	406.971128735402	313.654307945921	915.899788074801	270.953911896914	350.884290230893	1002.003943979975	386.163716444409	591.189061829963	924.221060168661	291.810725952054	660.763129287785	937.064620485022	195.795172539844	591.113795600275	776.315649778746	44.302810652126	578.171704130564	950.993139908894	95.671519669707	597.696440690226	866.067750124677	37.251964999974	644.942073574898	1072.857896808237	41.349817013026	615.529241413364	731.239313374035	222.334765961296	395.651776329084	772.416838539685	169.379556250154	310.664068423855	879.004735506985	158.023592092364	322.141590479784	933.103285484364	36.052769673272	286.752407200333	770.083955127144	1068.929085403877	279.893234657109	730.191826282786	815.119976932638	321.963868665245	1020.708844796948	1104.328520104466	835.220090382613	1228.212065858136	947.646179624154	828.900323721291	
54	5.246785714286	745.654821086547	987.322188058187	579.559721091202	895.207366550790	1407.460565007103	353.353125851110	1016.922487850859	1345.665765093003	503.182255125275	961.131010998260	1431.883729340945	681.699529007757	904.416909758306	1478.867843957923	506.845341087239	990.942503836754	928.509347089667	663.417805349871	938.419703867815	950.440539815996	393.532837633716	1039.729265399338	730.399026544158	613.988755035275	975.038385918324	611.370511631246	675.873338835343	1041.710255247070	568.451599686343	581.310969962909	1046.407787841111	472.754305396513	582.035260122292	1039.613328637160	786.637530031863	416.787532972992	1010.023130959545	658.213766426548	332.143061069441	1120.674399014617	604.572068709786	391.290206192163	1140.754278325479	515.114184441023	374.222411748284	1075.082665727185	445.843798200870	360.738356612026	931.301121480046	404.844927537146	316.769829208609	926.430594798915	268.546196652460	353.226763828454	1000.754657218238	385.042967159530	590.307322669120	922.633799722913	291.319722740685	660.419919113524	934.117779963388	195.240186707318	590.748141907914	772.178643451816	44.436212636637	578.275145859261	946.872311377769	95.613879505071	597.663467560628	861.899252187040	37.260113347589	644.976898779576	1068.694978567955	41.116586066010	615.539818141005	744.753630012664	210.481383858341	399.960900837696	787.346930709065	162.703729728190	312.916657291468	893.884342398426	156.839817205214	323.206259199578	953.459928442433	38.364149752688	283.318972357121	758.812603513883	1072.552064254223	287.005989725474	713.407488053457	820.159263922280	333.813607354521	1039.620632431325	1105.512205896575	834.696366724390	1258.840717091630	966.904180974298	821.557133152900	
55	5.267857142857	745.260362323340	987.345686846627	583.541580547281	891.647017043161	1408.458146259561	357.295607801910	1015.972979305155	1345.564864972998	504.487504026628	963.691838576170	1430.940209653423	684.402752312748	903.779191946800	1478.907962742337	510.793579038065	991.574001543799	927.712251399042	663.330195067657	935.113678128287	950.866902578534	394.316629392091	1039.115506310383	729.568348226125	613.375467692450	974.688396172866	610.627406249347	675.737319420347	1040.347619885236	567.653628300037	580.477116309173	1044.696830957932	471.889672712130	581.049924094254	1037.006584000345	788.306839124260	417.491502244848	1008.262855116323	659.369266793745	333.619824039275	1119.137233153388	606.734334592469	392.918447588542	1140.557106594738	518.074434279889	375.564868231982	1077.289784735973	447.647068922113	361.981666124236	935.445839719011	400.735208099218	319.146298883743	937.229377016537	264.456186140780	354.984711510246	998.435802357333	384.313926835125	589.660561127238	920.233308834510	290.999845228943	660.257768090869	930.718140829101	194.900862876339	590.527473959016	768.011406658039	44.535874333588	578.386526594138	942.709632135859	95.566235981300	597.670687806733	857.702898319030	37.248929339846	645.031229053401	1064.498587514283	40.941119892702	615.541438615532	759.535580660955	194.994777993825	403.286594992005	804.188301051055	152.823154006476	314.516760413064	910.364820077760	153.880505883151	323.908025861040	976.875600200023	40.567411519013	280.202466269276	748.790677666872	1076.621213582082	293.864152742269	699.011933657969	825.483522789790	344.886810387333	1057.801759879125	1107.837381588461	833.373804990677	1287.118416324292	988.379604744457	813.143032843362	
56	5.288928571429	744.958492761457	988.076120632752	587.231820213053	888.327065585350	1410.076899581417	361.079977095978	1015.162712827365	1346.056126062297	505.606002091067	966.324375811252	1430.555227470358	686.814675682147	903.292047892211	1479.502241144245	514.525978854182	992.126808933658	927.373192425124	662.919329379370	931.794078938407	951.764595583468	394.820550503698	1037.779873287573	728.955675269137	612.701553571886	973.282428991956	610.364774574021	675.732097286742	1037.783243844288	567.078289618520	579.861913270079	1041.588257330098	471.442838935469	580.395618011813	1033.502819128294	789.443828719996	417.637226925948	1004.596250788860	660.157257451325	334.646676512436	1115.440249506562	607.972858898589	393.813799813434	1137.946060821367	520.489223356547	376.273760295157	1077.664403045324	449.011487541186	362.652264275085	938.723152705760	394.949404087929	320.605718695619	948.329084129577	259.112643039958	356.025387447733	995.032816623639	384.002301924269	589.318078179893	916.997961100299	290.861152115993	660.320160446256	926.856396882455	194.790713384795	590.477734130737	763.807505484734	44.604345149026	578.507338553971	938.511701408725	95.530790649619	597.726692790455	853.478388733601	37.218987404122	645.107210350281	1060.268744013883	40.819916363719	615.535421529007	775.697794946655	176.976820498058	405.329670564984	822.877471444324	140.527585394428	315.288670972533	928.274469062490	149.500918934362	324.157449355530	1002.669141738937	42.652388921740	277.585234097166	740.022516544146	1081.045055527524	300.348718491585	686.940627527504	830.938505228064	354.947241069536	1075.126457170417	1111.253703832372	831.328465650136	1312.719522709940	1011.683592896634	803.852749977688	
57	5.310000000000	744.735509768650	989.489028004102	590.635545218055	885.269978936872	1412.253807478156	364.661390158870	1014.513421237703	1347.087616770358	506.510452439822	969.047393301963	1430.716038491991	688.900301278952	902.977803034241	1480.614938719587	517.997496075025	992.578287910840	927.467392737060	662.244479679850	928.486047433367	953.114112306462	395.087068451633	1035.750381988889	728.557522148867	612.033534054768	970.852703987366	610.564246656367	675.896017822736	1034.069060623624	566.728221434215	579.509424147463	1037.147881939124	471.405639770986	580.110624298377	1029.217379660915	790.103576878054	417.278014872562	999.179296385626	660.608014911745	335.242790103100	1109.800065467616	608.353577670015	393.972361183669	1133.164745189767	522.423714617513	376.398509614598	1076.388630738254	450.047013101518	362.797093979007	941.374061884016	387.905796250121	321.062054808516	959.676755351571	253.035698330950	356.300725513482	990.605474826100	384.102923130877	589.307717276965	912.960914797836	290.903390995565	660.619658255715	922.554284011179	194.907114482526	590.603898156837	759.564874691009	44.646595810232	578.637629379098	934.286523192914	95.508362184569	597.832592696733	849.227526272543	37.173047349551	645.203947806191	1056.007458493860	40.746379315628	615.522998619201	793.199506721764	157.624231673962	405.940335584230	843.195985765748	126.764475891646	315.147030480447	947.314547346170	144.206814743858	323.910758755290	1030.027140591516	44.738743694190	275.574235265059	732.483241846707	1085.699893105815	306.341247957973	677.087981502243	836.362060891936	363.792564667542	1091.500359696510	1115.654190696505	828.650597188838	1335.428555596710	1036.331782369950	793.902004758584	
